<?xml version="1.0" encoding="UTF-8"?>
<svg width="500px" height="150px" viewBox="0 0 500 150" version="1.1" xmlns="http://www.w3.org/2000/svg" xmlns:xlink="http://www.w3.org/1999/xlink">
    <!-- Generator: Sketch 54.1 (76490) - https://sketchapp.com -->
    <title>Letter Copy 2</title>
    <desc>Created with Sketch.</desc>
    <g id="Letter-Copy-2" stroke="none" stroke-width="1" fill="none" fill-rule="evenodd">
        <g id="Group-13" transform="translate(22.475248, 15.000000)" fill="#FFFFFF">
            <path d="M169.548551,91.8649865 L149.916868,68.4943294 L149.916868,91.8649865 L139.524428,91.8649865 L139.524428,21.4862286 L149.916868,21.4862286 L149.916868,64.9440144 L168.002196,42.7359136 L181.411377,42.7359136 L160.989775,66.1382538 L182.967453,91.8649865 L169.548551,91.8649865 Z M206.617822,69.8957696 C204.027723,69.8957696 195.576238,70.439784 195.576238,77.4360036 C195.576238,78.8315032 196.211341,83.3837984 204.389199,83.3837984 C205.581998,83.3837984 216.155176,83.1990999 220.068767,76.8059406 L220.10081,76.7537354 L220.10081,72.8325833 L219.965797,72.7778578 C215.088749,70.7868587 209.747615,69.8957696 206.617822,69.8957696 Z M203.964356,92.9261926 C192.445725,92.9261926 185.290009,86.9906391 185.290009,77.4360036 C185.290009,67.4565257 192.986499,61.7330333 206.405761,61.7330333 C210.860126,61.7330333 215.39982,62.7972997 219.89883,64.8966697 L220.206661,65.040324 L220.206661,62.4714671 C220.206661,55.570297 215.206121,51.1108911 207.466787,51.1108911 C202.159856,51.1108911 196.560216,53.7841584 193.440864,57.7852385 L187.475068,51.4154815 C193.557516,42.9449145 203.065707,41.6747075 208.209901,41.6747075 C222.647705,41.6747075 230.5991,49.060126 230.5991,62.4714671 L230.5991,91.8651665 L220.206661,91.8651665 L220.206661,86.0441044 L219.819982,86.5351935 C215.442304,92.0963096 208.006841,92.9261926 203.964356,92.9261926 Z M242.466607,91.8649865 L242.466607,21.4862286 L252.964896,21.4862286 L252.964896,91.8649865 L242.466607,91.8649865 Z M287.758632,50.7925833 C279.776634,50.7925833 273.94369,55.6570297 272.898146,63.1846625 L272.863942,63.4312871 L302.122268,63.4312871 L302.088425,63.1846625 C301.0418,55.5410981 295.550891,50.7925833 287.758632,50.7925833 Z M287.758632,92.9261566 C273.124968,92.9261566 262.503906,82.0822322 262.503906,67.1414581 C262.503906,59.6613501 265.054761,53.2379478 269.880324,48.5650405 C274.469343,44.1214761 280.818578,41.6746715 287.758632,41.6746715 C302.253321,41.6746715 312.376454,52.1470387 312.376454,67.1414581 C312.376454,68.250369 312.376454,69.8921332 312.288965,70.9571197 L272.863942,70.9571197 L272.898146,71.2033843 C273.961692,78.86027 280.003096,83.8082448 288.289325,83.8082448 C294.065743,83.8082448 299.365473,81.0485689 301.857642,76.7605401 C303.504806,77.5173357 305.346031,78.3162556 307.129289,79.089973 C308.23748,79.5706211 309.33847,80.0487489 310.386895,80.5128353 C306.393375,88.2910531 297.953771,92.9261566 287.758632,92.9261566 Z M321.440144,91.8649865 L321.440144,42.7359136 L331.832223,42.7359136 L331.832223,91.8649865 L321.440144,91.8649865 Z M366.80288,51.8538974 C358.068047,51.8538974 351.728173,58.2834203 351.728173,67.1413861 C351.728173,76.1836904 358.068047,82.7471467 366.80288,82.7471467 C374.452565,82.7471467 382.19586,77.3865707 382.19586,67.1413861 C382.19586,57.2123132 374.265347,51.8538974 366.80288,51.8538974 Z M365.423222,92.9264446 C351.449145,92.9264446 340.911251,81.9327453 340.911251,67.3534473 C340.911251,52.4742394 351.220162,41.6745995 365.423222,41.6745995 C372.822682,41.6745995 379.175878,44.7640684 382.0036,49.7365257 L382.408281,50.4490369 L382.408281,21.4863006 L392.80072,21.4863006 L392.80072,91.8650585 L382.408281,91.8650585 L382.408281,84.0594779 L382.00432,84.7561476 C379.125833,89.719604 372.617462,92.9264446 365.423222,92.9264446 Z M428.206085,51.960252 C419.409685,51.960252 413.025167,58.3447705 413.025167,67.1415302 C413.025167,76.1838344 419.409685,82.7469307 428.206085,82.7469307 C437.06405,82.7469307 443.492853,76.1838344 443.492853,67.1415302 C443.492853,58.3447705 437.06405,51.960252 428.206085,51.960252 Z M428.206085,92.9262286 C421.305635,92.9262286 414.913915,90.4232583 410.208245,85.8763636 C405.322916,81.1573717 402.632727,74.5035464 402.632727,67.1415302 C402.632727,52.3847345 413.388083,41.6747435 428.206085,41.6747435 C443.147219,41.6747435 453.991503,52.3847345 453.991503,67.1415302 C453.991503,74.5021062 451.277552,81.1559316 446.350459,85.8760036 C441.604464,90.4225383 435.1609,92.9262286 428.206085,92.9262286 Z M326.63622,33.4410801 C322.717948,33.4410801 319.529829,30.4437804 319.529829,26.759892 C319.529829,23.0749235 322.717948,20.0779838 326.63622,20.0779838 C330.561692,20.0779838 333.63676,23.0129973 333.63676,26.759892 C333.63676,30.5064266 330.561692,33.4410801 326.63622,33.4410801 Z" id="Combined-Shape"></path>
            <g id="Group-12" transform="translate(0.000000, 0.346355)">
                <path d="M99.2922772,39.229919 L99.2922772,52.1685329 L61.8820162,30.569973 L78.4764356,20.9886949 L93.9028983,29.8952655 C97.2274707,31.8142574 99.2922772,35.3912151 99.2922772,39.229919 L99.2922772,39.229919 Z M8.44331233,66.2970657 L45.8532133,87.8956256 L29.2591539,97.4765437 L13.8323312,88.569973 C10.5084788,86.6509811 8.44331233,83.0743834 8.44331233,79.2356796 L8.44331233,66.2970657 Z M33.0517732,71.2508011 L33.0517732,51.8416202 L70.6766157,73.5643924 L53.9075788,83.2918452 L33.0517732,71.2508011 Z M53.8676148,35.1967957 L74.6838164,47.2147975 L74.6838164,66.6236184 L37.0589739,44.9012061 L53.8676148,35.1967957 Z M53.8676148,8.45368137 C55.7624842,8.45368137 57.6256706,8.95125113 59.2569937,9.89274527 L70.4616742,16.3622322 L33.0514131,37.9611521 L33.0118092,18.8223582 L48.4782358,9.89274527 C50.109919,8.95125113 51.9731053,8.45368137 53.8676148,8.45368137 L53.8676148,8.45368137 Z M13.8323312,29.8959856 L25.0377318,23.4264986 L25.0377318,66.6239784 L8.44331233,57.0891449 L8.44331233,39.229919 C8.44331233,35.3912151 10.5084788,31.8142574 13.8323312,29.8959856 L13.8323312,29.8959856 Z M74.7237804,99.6428803 L59.2569937,108.573213 C57.6253105,109.514707 55.7617642,110.012277 53.8676148,110.012277 C51.9741854,110.012277 50.1106391,109.514707 48.4782358,108.573213 L37.2735554,102.103726 L74.6841764,80.5044464 L74.7237804,99.6428803 Z M93.9028983,88.569973 L82.6974977,95.0387399 L82.6974977,51.8412601 L99.2922772,61.3771737 L99.2922772,79.2356796 C99.2922772,83.0743834 97.2274707,86.6509811 93.9028983,88.569973 L93.9028983,88.569973 Z M98.1243204,22.5836544 L63.4784158,2.58077408 C60.570405,0.901206121 57.2469127,0.0137173717 53.8676148,0.0137173717 C50.4886769,0.0137173717 47.1651845,0.901206121 44.2568137,2.58077408 L9.61054905,22.5836544 C3.68255626,26.0065167 0.000108010801,32.3852745 0.000108010801,39.229919 L0.000108010801,79.2356796 C0.000108010801,86.0806841 3.68255626,92.4594419 9.61054905,95.8819442 L44.2568137,115.884824 C47.1655446,117.564032 50.4890369,118.451881 53.8676148,118.451881 C57.2461926,118.451881 60.569685,117.564032 63.4784158,115.884824 L98.1243204,95.8819442 C104.053033,92.4594419 107.735842,86.0806841 107.735842,79.2356796 L107.735842,39.229919 C107.735842,32.3849145 104.053033,26.0061566 98.1243204,22.5836544 L98.1243204,22.5836544 Z" id="Fill-11"></path>
            </g>
        </g>
    </g>
</svg>